<svg width="197" height="30" viewBox="0 0 197 30" fill="none" xmlns="http://www.w3.org/2000/svg">
<g clip-path="url(#clip0_4_971)">
<g clip-path="url(#clip1_4_971)">
<g clip-path="url(#clip2_4_971)">
<path d="M30.0222 23.5245L31.6585 20.5343C32.967 21.2879 34.4404 21.7093 35.9496 21.7615C37.6145 21.7615 38.4817 21.3279 38.4817 20.4565C38.4817 19.6916 37.7658 19.2294 35.9005 18.898C32.1944 18.2108 30.5826 16.779 30.5826 14.1937C30.5826 11.5103 32.9348 9.694 36.4896 9.694C38.3709 9.63538 40.2334 10.0847 41.881 10.9948L40.1957 14.0833C38.764 13.3429 37.819 13.0852 36.4896 13.1138C35.1601 13.1424 34.391 13.5229 34.391 14.21C34.391 14.9792 35.0292 15.3595 37.0254 15.7727C40.6538 16.5376 42.2901 17.9939 42.2901 20.4729C42.2901 23.365 39.8357 25.1526 35.9496 25.1526C33.8615 25.184 31.8069 24.6254 30.0222 23.5409" fill="#318FCC"/>
<path d="M43.2637 5.68089C43.2564 5.23633 43.3817 4.79966 43.6236 4.4266C43.8655 4.05356 44.2131 3.76104 44.622 3.58638C45.031 3.41172 45.4826 3.36284 45.9193 3.44598C46.3562 3.52911 46.7582 3.74049 47.0744 4.05314C47.3905 4.3658 47.6064 4.76555 47.6943 5.20139C47.7823 5.63723 47.7385 6.0894 47.5684 6.5002C47.3982 6.91101 47.1096 7.26181 46.7392 7.50786C46.3689 7.75392 45.9337 7.88405 45.489 7.88167C44.9031 7.88171 44.3407 7.65063 43.9242 7.23859C43.5075 6.82656 43.2701 6.26682 43.2637 5.68089ZM43.6155 9.95155H47.4239V24.8784H43.6155V9.95155Z" fill="#318FCC"/>
<path d="M61.009 9.9517H64.2324V22.9886C64.2324 27.2593 61.189 29.8896 56.3293 29.8896C53.6212 29.8896 51.2937 29.2024 49.3752 27.8197L51.2405 24.9071C52.6846 25.9695 54.4302 26.5427 56.2229 26.5434C58.9063 26.5434 60.4159 25.1608 60.4159 22.6573V22.0928C59.4177 23.4755 57.8101 24.2159 55.867 24.2159C51.8254 24.2159 48.6838 20.9433 48.6838 16.7749C48.6838 12.7374 51.7518 9.69399 55.867 9.69399C56.7715 9.65355 57.6737 9.81376 58.5089 10.1631C59.3443 10.5125 60.0918 11.0424 60.6981 11.7148L61.009 9.9517ZM60.4731 16.9467C60.4731 14.75 58.7837 13.1138 56.5092 13.1138C54.2349 13.1138 52.5209 14.75 52.5209 16.9467C52.5209 19.1434 54.2103 20.8083 56.5092 20.8083C57.0269 20.8302 57.5437 20.7459 58.0277 20.5609C58.5117 20.3759 58.9528 20.094 59.3239 19.7324C59.6951 19.3707 59.9884 18.9371 60.1861 18.4582C60.3837 17.9791 60.4813 17.4649 60.4731 16.9467Z" fill="#318FCC"/>
<path d="M65.5087 17.4172C65.4836 15.8614 65.922 14.3333 66.7684 13.0275C67.6147 11.7218 68.8305 10.6975 70.261 10.0851C71.6915 9.47277 73.2718 9.30005 74.8008 9.589C76.3298 9.87794 77.7381 10.6155 78.8465 11.7076C79.9549 12.7997 80.713 14.1971 81.0245 15.7216C81.3359 17.2462 81.1866 18.8289 80.5954 20.2683C80.0042 21.7076 78.9979 22.9384 77.7048 23.8039C76.4116 24.6693 74.8902 25.1304 73.3341 25.1281C72.3097 25.1489 71.2916 24.9643 70.3397 24.585C69.388 24.2058 68.5217 23.6397 67.7922 22.9202C67.0628 22.2007 66.485 21.3423 66.0927 20.3957C65.7005 19.4491 65.5019 18.4336 65.5087 17.409V17.4172ZM77.2939 17.409C77.2891 16.626 77.0524 15.8618 76.6137 15.2131C76.175 14.5644 75.5541 14.0602 74.8291 13.764C74.1041 13.4679 73.3077 13.3932 72.5403 13.5492C71.7729 13.7053 71.0689 14.0851 70.5171 14.6408C69.9655 15.1966 69.5907 15.9033 69.4402 16.6718C69.2897 17.4402 69.3701 18.2362 69.6715 18.959C69.9728 19.6818 70.4816 20.299 71.1335 20.7331C71.7853 21.167 72.5511 21.3982 73.3341 21.3974C73.8599 21.4093 74.3824 21.3141 74.8701 21.1174C75.3578 20.9209 75.8004 20.627 76.1708 20.2539C76.5413 19.8808 76.8319 19.4361 77.025 18.947C77.2181 18.4579 77.3096 17.9346 77.2939 17.409Z" fill="#318FCC"/>
<path d="M91.4763 9.89865V13.7603C91.0113 13.6816 90.5407 13.6393 90.0691 13.6334C87.6393 13.6334 86.4161 15.0897 86.4161 17.3151V24.8786H82.6036V9.95183H85.8025L86.1093 11.8703C86.7602 11.1096 87.5955 10.5288 88.5353 10.1835C89.4751 9.83828 90.4877 9.74019 91.4763 9.89865Z" fill="#318FCC"/>
<path d="M103.748 24.0108C102.828 24.7512 101.548 25.1356 99.989 25.1356C96.8474 25.1356 94.9779 23.2458 94.9779 20.1492L95.0066 13.4527H92.8589V9.95114H95.0066V7.53764L98.8395 6.83405V9.95114H102.803V13.4527H98.815V19.9201C98.815 20.9959 99.404 21.6341 100.423 21.6341C101.021 21.6658 101.608 21.4633 102.059 21.0696L103.748 24.0108Z" fill="#318FCC"/>
<path d="M115.824 9.95177H119.068V24.8786H115.824L115.542 23.1155C114.944 23.7504 114.222 24.2564 113.422 24.6025C112.621 24.9486 111.759 25.1274 110.887 25.1282C106.825 25.1282 103.499 21.7534 103.499 17.409C103.499 13.0648 106.825 9.68997 110.887 9.68997C111.759 9.69192 112.622 9.87176 113.422 10.2185C114.222 10.5653 114.944 11.0716 115.542 11.7067L115.824 9.95177ZM115.284 17.4172C115.279 16.6342 115.042 15.87 114.604 15.2213C114.165 14.5727 113.544 14.0684 112.819 13.7722C112.094 13.4761 111.298 13.4014 110.53 13.5574C109.763 13.7135 109.059 14.0933 108.507 14.649C107.956 15.2048 107.581 15.9115 107.43 16.68C107.28 17.4484 107.36 18.2444 107.662 18.9672C107.963 19.69 108.472 20.3072 109.124 20.7413C109.775 21.1752 110.541 21.4064 111.324 21.4057C111.85 21.4175 112.372 21.3223 112.86 21.1257C113.348 20.9291 113.79 20.6352 114.161 20.2621C114.531 19.889 114.822 19.4443 115.015 18.9552C115.208 18.4661 115.3 17.9428 115.284 17.4172Z" fill="#318FCC"/>
<path d="M120.978 24.8821V9.95112H124.202L124.508 11.7674C125.032 11.1129 125.697 10.5861 126.454 10.2267C127.211 9.86741 128.039 9.68503 128.877 9.69341C131.229 9.69341 132.992 10.6138 134.015 12.3033C134.569 11.4927 135.313 10.8307 136.182 10.3756C137.052 9.92045 138.02 9.68618 139.001 9.69341C142.733 9.69341 145.06 12.1478 145.06 16.0871V24.8821H141.227V17.0075C141.227 14.6309 140.204 13.375 138.232 13.375C136.06 13.375 134.911 14.8599 134.911 17.7234V24.8821H131.103V17.0075C131.103 14.6309 130.08 13.375 128.088 13.375C125.94 13.375 124.787 14.8599 124.787 17.7234V24.8821H120.978Z" fill="#318FCC"/>
<path d="M146.917 22.2398C146.912 21.7224 147.06 21.215 147.343 20.7821C147.626 20.3492 148.032 20.0103 148.508 19.8083C148.984 19.6064 149.51 19.5507 150.018 19.6481C150.526 19.7455 150.994 19.9918 151.362 20.3556C151.729 20.7195 151.981 21.1844 152.085 21.6914C152.187 22.1984 152.138 22.7247 151.941 23.2032C151.745 23.6817 151.41 24.091 150.98 24.3792C150.55 24.6672 150.045 24.821 149.526 24.8211C148.84 24.8232 148.179 24.5529 147.689 24.0691C147.2 23.5854 146.923 22.9277 146.917 22.2398Z" fill="#FF7300"/>
<path d="M168.217 16.0876V24.8785H164.409V17.0081C164.409 14.6027 163.309 13.3755 161.19 13.3755C158.886 13.3755 157.659 14.9095 157.659 17.7239V24.8785H153.85V9.95163H157.074L157.353 11.6902C157.946 11.0505 158.666 10.5427 159.468 10.1995C160.271 9.85628 161.136 9.68543 162.007 9.698C165.865 9.698 168.217 12.1238 168.217 16.0876Z" fill="#318FCC"/>
<path d="M184.335 18.3246H173.289C173.772 20.2431 175.408 21.4703 177.687 21.4703C179.044 21.5196 180.367 21.0333 181.368 20.1163L183.619 22.5952C182.824 23.3449 181.889 23.928 180.865 24.3101C179.842 24.6923 178.754 24.8659 177.663 24.8205C172.856 24.8205 169.509 21.6994 169.509 17.1996C169.484 16.1688 169.666 15.1434 170.047 14.1854C170.429 13.2273 171.001 12.3564 171.728 11.6254C172.454 10.8944 173.323 10.3184 174.278 9.93215C175.235 9.54592 176.259 9.35751 177.29 9.37831C181.455 9.37831 184.449 12.3686 184.449 16.5615C184.476 17.1514 184.441 17.7423 184.342 18.3246H184.335ZM180.792 15.4365C180.714 13.8248 179.283 12.7286 177.261 12.7286C175.241 12.7286 173.891 13.7512 173.351 15.4365H180.792Z" fill="#318FCC"/>
<path d="M196.001 23.6963C195.08 24.4367 193.804 24.8213 192.241 24.8213C189.1 24.8213 187.234 22.9273 187.234 19.8348L187.259 13.1383H185.111V9.63673H187.259V7.20688L191.092 6.51556V9.63673H195.056V13.1383H191.067V19.6057C191.067 20.6775 191.657 21.3156 192.68 21.3156C193.277 21.3471 193.863 21.1464 194.316 20.7551L196.001 23.6963Z" fill="#318FCC"/>
</g>
</g>
</g>
<g clip-path="url(#clip3_4_971)">
<g clip-path="url(#clip4_4_971)">
<g clip-path="url(#clip5_4_971)">
<path fill-rule="evenodd" clip-rule="evenodd" d="M25.6408 10.9001C24.6758 10.3122 23.9214 9.43214 23.4861 8.38655C23.6572 8.3445 23.8073 8.30593 23.9226 8.27092C24.0019 8.24556 24.0733 8.19989 24.1296 8.13838C24.1859 8.07694 24.2253 8.00173 24.2439 7.92033C24.4932 6.87332 24.666 5.80943 24.7607 4.73714C24.7649 4.58758 24.7284 4.43971 24.6553 4.30939C24.582 4.17908 24.4748 4.07123 24.3452 3.99744C20.8598 1.96063 17.3465 0.765187 14.591 0.540822C12.0206 0.302435 7.91362 0.775704 6.68781 2.8651C6.61796 2.98429 6.71225 3.12452 6.84147 3.07544C8.15113 2.54257 12.1918 2.16747 13.477 3.34188C12.7785 3.9764 10.4141 6.2481 11.0323 7.36641C11.3431 7.94135 12.4956 7.63984 13.1277 6.52154C13.4786 5.90944 13.7153 5.23821 13.8262 4.54082C13.9021 7.23428 13.0373 9.86959 11.3815 11.9905C9.41534 14.6758 6.11855 15.5802 4.21521 14.4233C2.87066 13.5995 1.78802 11.9694 1.59944 9.84495C1.09204 10.8207 0.869307 11.9204 0.956841 13.0176C0.69983 12.7058 0.480604 12.3646 0.303772 12.001C-0.551857 13.1263 0.366634 16.0325 3.44689 15.5768C1.80199 18.532 0.412035 23.6118 0.45045 27.3173H4.29204C4.78098 24.7266 6.38746 23.7064 9.26164 23.6504C8.77219 24.8183 8.46593 26.0553 8.35363 27.3173H12.4467C12.7575 25.3261 13.2813 23.8747 13.9869 22.8791C13.6888 24.3394 13.5425 25.8267 13.5503 27.3173H17.4198C17.5526 22.1605 20.8598 16.6004 18.6526 8.56184C19.727 8.80376 20.8371 8.84063 21.925 8.67052C21.8551 9.66617 22.2742 10.8721 23.3918 11.2998C23.2754 11.0469 23.2354 10.7655 23.2765 10.49C24.0112 10.845 24.8301 10.9871 25.6408 10.9001ZM18.6841 4.82829C18.4485 4.82829 18.2183 4.75818 18.0224 4.62682C17.8266 4.49546 17.6739 4.30876 17.5838 4.09032C17.4937 3.87189 17.4701 3.63152 17.516 3.39963C17.562 3.16773 17.6754 2.95473 17.842 2.78754C18.0085 2.62036 18.2207 2.5065 18.4518 2.46037C18.6827 2.41425 18.9222 2.43792 19.1398 2.5284C19.3574 2.61888 19.5434 2.7721 19.6743 2.96869C19.8051 3.16528 19.8749 3.39641 19.8749 3.63285C19.8749 3.9499 19.7495 4.25396 19.5261 4.47815C19.3028 4.70234 18.9999 4.82829 18.6841 4.82829ZM22.9727 6.96326C22.8244 7.12199 22.6375 7.23918 22.4303 7.30325C22.2232 7.36733 22.003 7.37609 21.7914 7.32867C21.5799 7.28124 21.3843 7.17927 21.2239 7.03281C21.0636 6.88635 20.9442 6.70046 20.8773 6.49349C20.8709 6.47554 20.87 6.45606 20.8748 6.43761C20.8796 6.41916 20.8898 6.40259 20.9042 6.39009C20.9185 6.37758 20.9363 6.36972 20.9552 6.36752C20.9741 6.36533 20.9932 6.36892 21.0099 6.37781C21.3105 6.51138 21.6226 6.61699 21.9425 6.69332C22.2628 6.76223 22.5892 6.79863 22.9168 6.80199C22.935 6.80292 22.9525 6.80893 22.9675 6.81933C22.9825 6.82974 22.9943 6.84413 23.0015 6.86089C23.0088 6.87765 23.0113 6.89612 23.0086 6.9142C23.006 6.93229 22.9983 6.94927 22.9866 6.96326" fill="#FF7300"/>
<path fill-rule="evenodd" clip-rule="evenodd" d="M18.9251 2.88266H18.8309C18.8731 2.91532 18.9073 2.95726 18.9309 3.00527C18.9546 3.05327 18.9669 3.10607 18.967 3.15961C18.9772 3.25259 18.9502 3.34582 18.8919 3.41879C18.8336 3.49177 18.7488 3.53851 18.6562 3.54874C18.5636 3.55897 18.4707 3.53185 18.398 3.47333C18.3254 3.41481 18.2788 3.32971 18.2686 3.23673C18.1886 3.35972 18.1461 3.50351 18.1464 3.6504C18.1464 3.80433 18.1918 3.9548 18.277 4.08279C18.3622 4.21077 18.4832 4.31052 18.6249 4.36943C18.7666 4.42833 18.9225 4.44375 19.0729 4.41372C19.2233 4.38369 19.3614 4.30956 19.4699 4.20072C19.5783 4.09188 19.6521 3.95321 19.682 3.80224C19.7119 3.65127 19.6966 3.49478 19.6379 3.35258C19.5793 3.21037 19.4799 3.08882 19.3524 3.0033C19.2249 2.91779 19.075 2.87214 18.9216 2.87214" fill="#FF7300"/>
</g>
</g>
</g>
<defs>
<clipPath id="clip0_4_971">
<rect width="167.39" height="27" fill="white" transform="translate(29.47 2.89)"/>
</clipPath>
<clipPath id="clip1_4_971">
<rect width="167.39" height="27" fill="white" transform="translate(29.47 2.89)"/>
</clipPath>
<clipPath id="clip2_4_971">
<rect width="167.39" height="26.9984" fill="white" transform="translate(29.47 2.89081)"/>
</clipPath>
<clipPath id="clip3_4_971">
<rect width="26.28" height="27" fill="white" transform="translate(0 0.479996)"/>
</clipPath>
<clipPath id="clip4_4_971">
<rect width="26.28" height="27" fill="white" transform="translate(0 0.479996)"/>
</clipPath>
<clipPath id="clip5_4_971">
<rect width="26.28" height="26.9903" fill="white" transform="translate(0 0.484863)"/>
</clipPath>
</defs>
</svg>
