<svg width="111" height="91" viewBox="0 0 111 91" fill="none" xmlns="http://www.w3.org/2000/svg">
<g clip-path="url(#clip0_1_12)">
<g clip-path="url(#clip1_1_12)">
<mask id="mask0_1_12" style="mask-type:luminance" maskUnits="userSpaceOnUse" x="1" y="13" width="109" height="65">
<path d="M109.33 13.5H1.33002V77.5H109.33V13.5Z" fill="white"/>
</mask>
<g mask="url(#mask0_1_12)">
<path d="M2.09314 76.7419H93.8618H108.282" stroke="#1D1E1E" stroke-width="1.4" stroke-miterlimit="10" stroke-linecap="round"/>
<path d="M23.5698 63.377H28.032C28.9303 63.377 29.7918 63.7321 30.4269 64.3641C31.0621 64.9962 31.4189 65.8534 31.4189 66.7473V72.6454C31.4189 73.851 30.9377 75.0073 30.081 75.8598C29.2243 76.7123 28.0624 77.1912 26.8508 77.1912H24.734C23.5239 77.189 22.3642 76.7091 21.5093 75.8568C20.6545 75.0045 20.1744 73.8496 20.1744 72.6454V66.7473C20.1744 66.304 20.2622 65.865 20.433 65.4556C20.6037 65.0461 20.854 64.6742 21.1694 64.3611C21.4848 64.0481 21.8591 63.8 22.271 63.6311C22.6829 63.4622 23.1243 63.3759 23.5698 63.377Z" fill="white" stroke="#1D1E1E" stroke-width="1.4" stroke-miterlimit="10"/>
<path d="M74.9589 63.377H79.4254C80.3237 63.377 81.1851 63.732 81.8203 64.3641C82.4555 64.9962 82.8123 65.8534 82.8123 66.7473V72.6454C82.8123 73.851 82.331 75.0073 81.4744 75.8598C80.6177 76.7123 79.4557 77.1912 78.2442 77.1912H76.1274C74.918 77.1878 73.7594 76.7074 72.9054 75.8553C72.0515 75.0032 71.572 73.8489 71.572 72.6454V66.7473C71.572 65.8534 71.9288 64.9962 72.564 64.3641C73.1991 63.732 74.0606 63.377 74.9589 63.377Z" fill="white" stroke="#1D1E1E" stroke-width="1.4" stroke-miterlimit="10"/>
<path d="M85.0604 46.6558C85.2119 46.4688 85.3438 46.2669 85.4541 46.0533C85.8288 45.3126 85.9858 44.4817 85.9071 43.6562C85.8241 42.916 85.5414 42.2119 85.089 41.6186C84.6366 41.0252 84.0313 40.5647 83.3373 40.2858C82.9718 40.1385 82.5867 40.0449 82.1942 40.0077C81.6214 39.9531 81.0434 40.0183 80.4974 40.1991C79.9514 40.3798 79.4494 40.6722 79.0237 41.0574C78.5979 41.4426 78.2578 41.9121 78.0251 42.4358C77.7925 42.9596 77.6724 43.5259 77.6727 44.0985C77.6732 44.2393 77.6817 44.38 77.6981 44.5198C77.798 45.3201 77.755 46.1316 77.5711 46.917L77.2705 48.1134C77.241 48.2282 77.2428 48.3487 77.2758 48.4625C77.3087 48.5763 77.3715 48.6793 77.4578 48.7609C77.5441 48.8425 77.6507 48.8997 77.7666 48.9266C77.8825 48.9535 78.0035 48.9491 78.1172 48.9139L79.8826 48.421C80.5153 48.2563 81.1678 48.1797 81.8216 48.1935C82.4417 48.1889 83.0532 48.0487 83.6129 47.783C84.1725 47.5173 84.6667 47.1325 85.0604 46.6558Z" fill="#318FCC" stroke="#1D1E1E" stroke-width="1.4" stroke-miterlimit="10" stroke-linecap="round"/>
<path d="M16.7723 46.656C16.6221 46.4689 16.4916 46.267 16.3828 46.0535C15.9999 45.3167 15.8354 44.4868 15.9086 43.6606C15.9916 42.9204 16.2743 42.2163 16.7268 41.6229C17.1792 41.0296 17.7844 40.5691 18.4784 40.2902C18.8439 40.1429 19.229 40.0493 19.6215 40.0121C20.1943 39.9575 20.7723 40.0227 21.3183 40.2034C21.8643 40.3842 22.3663 40.6766 22.7921 41.0618C23.2178 41.447 23.558 41.9165 23.7906 42.4402C24.0233 42.964 24.1433 43.5303 24.1431 44.1029C24.1425 44.2437 24.134 44.3844 24.1177 44.5242C24.0177 45.3245 24.0607 46.136 24.2447 46.9214L24.5453 48.1178C24.5748 48.2326 24.5729 48.3531 24.54 48.4669C24.5071 48.5807 24.4442 48.6837 24.3579 48.7653C24.2716 48.8469 24.165 48.9041 24.0491 48.931C23.9332 48.9579 23.8122 48.9535 23.6985 48.9183L21.9331 48.4254C21.3018 48.2609 20.6507 48.1844 19.9983 48.1979C19.3775 48.1939 18.7652 48.054 18.2048 47.7883C17.6444 47.5225 17.1496 47.1374 16.7554 46.6602L16.7723 46.656Z" fill="white" stroke="#1D1E1E" stroke-width="1.4" stroke-miterlimit="10" stroke-linecap="round"/>
<path d="M78.9271 46.3103L73.978 32.7783C73.1407 30.9798 71.8017 29.4586 70.1205 28.3957C68.4392 27.3329 66.4864 26.7732 64.4946 26.7832H37.0944C35.2729 26.7764 33.4814 27.2442 31.8979 28.14C30.3144 29.0358 28.9941 30.3284 28.0682 31.8893L21.8744 46.7399L78.9271 46.3103Z" fill="#318FCC" stroke="#1D1E1E" stroke-width="1.4" stroke-miterlimit="10"/>
<path d="M81.4808 69.0097C61.2079 70.0967 40.8908 70.0967 20.6178 69.0097C18.1877 69.0097 16.2148 67.3793 16.2148 65.3655V55.1154C16.2148 49.7102 21.5069 45.3287 28.0394 45.3287H74.055C80.5833 45.3287 85.8796 49.7102 85.8796 55.1154V65.3655C85.8838 67.3793 83.9109 69.0097 81.4808 69.0097Z" fill="white" stroke="#1D1E1E" stroke-width="1.4" stroke-miterlimit="10"/>
<path d="M65.8601 60.9292C56.2266 61.6117 46.5566 61.6117 36.9231 60.9292H65.8601Z" fill="white"/>
<path d="M65.8601 60.9292C56.2266 61.6117 46.5566 61.6117 36.9231 60.9292" stroke="#1D1E1E" stroke-width="1.4" stroke-miterlimit="10" stroke-linecap="round"/>
<path d="M30.0701 52.2168H26.7551C25.0669 52.2168 23.6984 53.5786 23.6984 55.2585V56.2107C23.6984 57.8906 25.0669 59.2524 26.7551 59.2524H30.0701C31.7582 59.2524 33.1268 57.8906 33.1268 56.2107V55.2585C33.1268 53.5786 31.7582 52.2168 30.0701 52.2168Z" fill="#318FCC" stroke="#1D1E1E" stroke-width="1.4" stroke-miterlimit="10"/>
<path d="M76.3314 52.2168H73.0165C71.3283 52.2168 69.9598 53.5786 69.9598 55.2585V56.2107C69.9598 57.8906 71.3283 59.2524 73.0165 59.2524H76.3314C78.0196 59.2524 79.3881 57.8906 79.3881 56.2107V55.2585C79.3881 53.5786 78.0196 52.2168 76.3314 52.2168Z" fill="#318FCC" stroke="#1D1E1E" stroke-width="1.4" stroke-miterlimit="10"/>
<path d="M91.7558 39.7163C92.2976 39.8101 92.7874 40.0818 93.1394 40.4838C93.4914 40.8858 93.6831 41.3925 93.681 41.9151V55.8629C93.7137 59.7891 92.5734 63.6436 90.3921 66.9801C88.2107 70.3166 85.0777 72.9985 81.3559 74.715C79.884 75.3671 78.2361 76.3073 76.7898 76.3073C75.3436 76.3073 73.6933 75.3671 72.2202 74.715C68.4989 72.9978 65.3664 70.3158 63.1852 66.9795C61.0039 63.6431 59.8632 59.7889 59.8951 55.8629V41.9151C59.8938 41.3922 60.0863 40.8855 60.4389 40.4836C60.7915 40.0816 61.2817 39.81 61.8239 39.7163C66.034 39.0063 71.065 37.6208 75.4967 34.9292C75.882 34.6945 76.3302 34.5697 76.7881 34.5697C77.2459 34.5697 77.6941 34.6945 78.0794 34.9292C82.5147 37.6312 87.5457 39.0098 91.7558 39.7163Z" fill="white" stroke="#1D1E1E" stroke-width="1.4" stroke-miterlimit="10"/>
<path d="M70.4811 56.0879L76.3376 60.5708L84.4465 48.4669" stroke="#1D1E1E" stroke-width="1.4" stroke-miterlimit="10" stroke-linecap="round"/>
</g>
</g>
</g>
<defs>
<clipPath id="clip0_1_12">
<rect width="110" height="90" fill="white" transform="translate(0.330017 0.5)"/>
</clipPath>
<clipPath id="clip1_1_12">
<rect width="110" height="90" fill="white" transform="translate(0.330017 0.5)"/>
</clipPath>
</defs>
</svg>
