<svg width="126" height="96" viewBox="0 0 126 96" fill="none" xmlns="http://www.w3.org/2000/svg">
<g clip-path="url(#clip0_1_37)">
<g clip-path="url(#clip1_1_37)">
<path d="M2.82 83.98H123.49" stroke="#1D1E1E" stroke-width="1.4" stroke-miterlimit="10" stroke-linecap="round"/>
<path d="M63.5099 10.77H25.1999C22.6899 10.77 20.6499 12.81 20.6499 15.32V83.92H68.0599V15.32C68.0599 12.81 66.0199 10.77 63.5099 10.77Z" fill="white" stroke="#1D1E1E" stroke-width="1.4" stroke-miterlimit="10"/>
<path d="M31.08 19.6899H57.64C59.2913 19.6899 60.63 21.0286 60.63 22.6799V42.5299C60.63 44.1813 59.2913 45.5199 57.64 45.5199H31.08C29.4286 45.5199 28.09 44.1813 28.09 42.5299V22.6799C28.09 21.0286 29.4286 19.6899 31.08 19.6899Z" fill="white" stroke="#1D1E1E" stroke-width="1.4" stroke-miterlimit="10"/>
<path d="M20.9698 51.3398H18.1498C16.8498 51.3398 15.7998 52.3898 15.7998 53.6898V71.4098C15.7998 72.7098 14.7498 73.7598 13.4498 73.7598H10.5898C9.28983 73.7598 8.23983 72.7098 8.23983 71.4098V38.5398" stroke="#1D1E1E" stroke-width="1.4" stroke-miterlimit="10"/>
<path d="M13.3498 28.7998H3.81982C3.26982 28.7998 2.81982 29.2498 2.81982 29.7998V32.6398C2.81982 35.8198 5.39983 38.4098 8.58983 38.4098C11.7698 38.4098 14.3598 35.8298 14.3598 32.6398V29.7998C14.3598 29.2498 13.9098 28.7998 13.3598 28.7998H13.3498Z" fill="white" stroke="#1D1E1E" stroke-width="1.4" stroke-miterlimit="10"/>
<path d="M11.3598 28.7698V24.3398" stroke="#1D1E1E" stroke-width="1.4" stroke-linecap="round" stroke-linejoin="round"/>
<path d="M5.79983 28.7698V24.3398" stroke="#1D1E1E" stroke-width="1.4" stroke-linecap="round" stroke-linejoin="round"/>
<path d="M47.67 30.5201L45.02 30.3501L46.12 26.3401C46.23 25.9501 46.05 25.5401 45.69 25.3501C45.33 25.1601 44.89 25.2401 44.63 25.5501L39.72 31.2501C39.5 31.5001 39.45 31.8401 39.58 32.1501C39.71 32.4501 39.99 32.6601 40.32 32.6801L42.97 32.8501L41.87 36.8601C41.76 37.2501 41.94 37.6601 42.3 37.8501C42.43 37.9201 42.57 37.9501 42.71 37.9501C42.95 37.9501 43.19 37.8501 43.36 37.6501L48.27 31.9601C48.49 31.7101 48.54 31.3701 48.41 31.0601C48.28 30.7601 48 30.5501 47.67 30.5301V30.5201Z" fill="#FF7300" stroke="#1D1E1E" stroke-width="1.4" stroke-miterlimit="10"/>
<path d="M69.0799 66.03C58.1299 66.81 47.1399 66.81 36.1999 66.03H69.0799Z" fill="white"/>
<path d="M51.2324 68.621H56.1245C57.1087 68.621 58.0543 69.0069 58.749 69.7017C59.4437 70.3964 59.8393 71.3323 59.8393 72.3165V78.7814C59.8393 80.1033 59.3086 81.3673 58.3727 82.3033C57.4367 83.2392 56.1631 83.7603 54.8315 83.7603H52.5061C51.1745 83.7603 49.9105 83.2296 48.9745 82.2936C48.0386 81.3577 47.5079 80.0936 47.5079 78.7717V72.3069C47.5079 71.8244 47.6044 71.342 47.7877 70.8885C47.971 70.435 48.2509 70.0297 48.5982 69.692C48.9456 69.3447 49.3509 69.0745 49.8044 68.8911C50.2579 68.7078 50.7403 68.6113 51.2324 68.6113V68.621Z" fill="white" stroke="#1D1E1E" stroke-width="1.4" stroke-miterlimit="10"/>
<path d="M107.583 68.621H112.484C113.469 68.621 114.414 69.0069 115.109 69.7017C115.804 70.3964 116.199 71.3323 116.199 72.3165V78.7814C116.199 80.1033 115.669 81.3673 114.733 82.3033C113.797 83.2392 112.523 83.7603 111.191 83.7603H108.866C107.544 83.7603 106.27 83.2296 105.334 82.2936C104.398 81.3577 103.868 80.0936 103.868 78.7717V72.3069C103.868 71.3227 104.263 70.3867 104.958 69.692C105.653 68.9973 106.598 68.6113 107.583 68.6113V68.621Z" fill="white" stroke="#1D1E1E" stroke-width="1.4" stroke-miterlimit="10"/>
<path d="M118.66 50.2873C118.824 50.0847 118.969 49.8628 119.094 49.6312C119.509 48.8207 119.673 47.904 119.586 47.0067C119.499 46.1962 119.181 45.4242 118.689 44.7681C118.197 44.1216 117.531 43.6102 116.769 43.3111C116.363 43.1471 115.949 43.0506 115.514 43.0023C114.887 42.9445 114.25 43.012 113.652 43.2146C113.054 43.4173 112.504 43.7357 112.041 44.1602C111.578 44.5848 111.201 45.0962 110.95 45.6751C110.699 46.2541 110.564 46.8716 110.564 47.4988C110.564 47.6532 110.574 47.8076 110.593 47.9619C110.699 48.84 110.651 49.7277 110.458 50.5865L110.13 51.8987C110.101 52.0242 110.101 52.1593 110.13 52.2847C110.159 52.4101 110.236 52.5259 110.333 52.6128C110.429 52.6996 110.545 52.7671 110.671 52.7961C110.796 52.825 110.931 52.825 111.056 52.7864L112.996 52.2461C113.691 52.0628 114.405 51.9856 115.119 51.9952C115.794 51.9952 116.47 51.8408 117.087 51.5417C117.705 51.2522 118.245 50.8277 118.67 50.3066L118.66 50.2873Z" fill="white" stroke="#1D1E1E" stroke-width="1.4" stroke-miterlimit="10" stroke-linejoin="round"/>
<path d="M43.7833 50.2873C43.6193 50.0847 43.4746 49.8628 43.3588 49.6312C42.9342 48.8207 42.7605 47.9137 42.8377 47.0067C42.9246 46.1962 43.243 45.4242 43.7351 44.7681C44.2272 44.1216 44.893 43.6102 45.6552 43.3111C46.0605 43.1471 46.4754 43.0506 46.9096 43.0023C47.5368 42.9445 48.1736 43.012 48.7719 43.2146C49.3701 43.4173 49.9201 43.7357 50.3832 44.1602C50.8464 44.5848 51.2227 45.0962 51.4736 45.6751C51.7245 46.2541 51.8595 46.8716 51.8595 47.4988C51.8595 47.6532 51.8499 47.8076 51.8306 47.9619C51.7245 48.84 51.7727 49.7277 51.9657 50.5865L52.2938 51.8987C52.3227 52.0242 52.3227 52.1593 52.2938 52.2847C52.2552 52.4101 52.1876 52.5259 52.0911 52.6128C51.9946 52.6996 51.8788 52.7671 51.7534 52.7961C51.628 52.825 51.4929 52.825 51.3674 52.7864L49.428 52.2461C48.7333 52.0628 48.0192 51.9856 47.3052 51.9952C46.6201 51.9952 45.9544 51.8408 45.3368 51.5417C44.7193 51.2522 44.1789 50.8277 43.7447 50.3066H43.764L43.7833 50.2873Z" fill="white" stroke="#1D1E1E" stroke-width="1.4" stroke-miterlimit="10" stroke-linecap="round" stroke-linejoin="round"/>
<path d="M111.934 49.9113L106.512 35.0711C105.595 33.1027 104.128 31.4334 102.285 30.2659C100.442 29.0984 98.3002 28.4905 96.1195 28.5001H66.0725C64.0752 28.5001 62.1068 29.0019 60.3699 29.9861C58.6331 30.9703 57.1858 32.3887 56.1726 34.0965L49.3797 50.3841L111.934 49.9113Z" fill="#FF7300" stroke="#1D1E1E" stroke-width="1.4" stroke-miterlimit="10"/>
<path d="M114.733 74.796C92.5014 75.9925 70.2314 75.9925 48.0001 74.796C45.337 74.796 43.1756 73.011 43.1756 70.8014V59.5603C43.1756 53.6358 48.9747 48.8306 56.1439 48.8306H106.599C113.758 48.8306 119.567 53.6358 119.567 59.5603V70.8014C119.567 73.011 117.405 74.796 114.742 74.796H114.733Z" fill="white" stroke="#1D1E1E" stroke-width="1.4" stroke-miterlimit="10"/>
<path d="M97.6054 65.9385C87.0398 66.6911 76.4355 66.6911 65.8795 65.9385" stroke="#1D1E1E" stroke-width="1.4" stroke-miterlimit="10" stroke-linecap="round"/>
<path d="M58.3632 57.0996H54.7255C52.8729 57.0996 51.3773 58.5952 51.3773 60.4382V61.4803C51.3773 63.3232 52.8825 64.8188 54.7255 64.8188H58.3632C60.2158 64.8188 61.7114 63.3232 61.7114 61.4803V60.4382C61.7114 58.5952 60.2061 57.0996 58.3632 57.0996Z" fill="#FF7300" stroke="#1D1E1E" stroke-width="1.4" stroke-miterlimit="10"/>
<path d="M109.088 57.0996H105.45C103.597 57.0996 102.102 58.5952 102.102 60.4382V61.4803C102.102 63.3232 103.607 64.8188 105.45 64.8188H109.088C110.94 64.8188 112.436 63.3232 112.436 61.4803V60.4382C112.436 58.5952 110.931 57.0996 109.088 57.0996Z" fill="#FF7300" stroke="#1D1E1E" stroke-width="1.4" stroke-miterlimit="10"/>
</g>
</g>
<defs>
<clipPath id="clip0_1_37">
<rect width="125" height="95" fill="white" transform="translate(0.82 0.5)"/>
</clipPath>
<clipPath id="clip1_1_37">
<rect width="125" height="95" fill="white" transform="translate(0.82 0.5)"/>
</clipPath>
</defs>
</svg>
