<svg width="111" height="90" viewBox="0 0 111 90" fill="none" xmlns="http://www.w3.org/2000/svg">
<g clip-path="url(#clip0_1_64)">
<g clip-path="url(#clip1_1_64)">
<path d="M47.8684 16.0047C45.2545 15.9408 42.6653 16.5247 40.332 17.7045C37.9986 18.8844 35.9936 20.6234 34.4956 22.7664C32.353 25.9535 31.2424 29.7225 31.3144 33.5622C31.3864 37.4018 32.6375 41.1265 34.898 44.231C42.8166 56.0893 58.3687 66.4554 59.0393 66.8913C59.4186 67.1457 59.865 67.2816 60.3218 67.2816C60.7785 67.2816 61.2249 67.1457 61.6043 66.8913C62.2637 66.4554 77.8102 56.0893 85.7456 44.231C88.0046 41.1259 89.2548 37.4013 89.3268 33.562C89.3987 29.7227 88.289 25.9541 86.1479 22.7664C84.6407 20.6315 82.633 18.8987 80.3006 17.7198C77.9683 16.541 75.3824 15.9522 72.7696 16.0047C70.2786 16.0885 67.845 16.7742 65.6768 18.0033C63.5086 19.2324 61.6703 20.9684 60.319 23.0626C58.9677 20.9684 57.1294 19.2324 54.9612 18.0033C52.793 16.7742 50.3593 16.0885 47.8684 16.0047Z" fill="#318FCC" stroke="#1D1E1E" stroke-width="1.5" stroke-miterlimit="10"/>
<path d="M30.5224 52.2334C30.5224 52.2334 47.6504 47.6735 53.0207 47.8802C58.391 48.087 66.086 49.0872 65.7899 53.2505C65.1807 61.6329 51.9031 52.6413 50.8916 58.1122C50.3328 61.1243 54.9654 63.8738 61.4087 63.0859C67.5558 62.3314 74.1052 60.5991 79.062 60.4426C97.8776 59.8503 72.3561 72.91 57.7819 73.2956C41.1345 73.7594 27.6836 64.2761 27.6836 64.2761C27.6836 64.2761 23.213 55.754 25.6886 54.3849C27.2385 53.5372 28.8552 52.8176 30.5224 52.2334Z" fill="white" stroke="#1D1E1E" stroke-width="1.5" stroke-miterlimit="10"/>
<path d="M29.7906 49.2773H23.7218C22.4008 49.2773 21.33 50.3482 21.33 51.6691V67.8751C21.33 69.196 22.4008 70.2668 23.7218 70.2668H29.7906C31.1116 70.2668 32.1824 69.196 32.1824 67.8751V51.6691C32.1824 50.3482 31.1116 49.2773 29.7906 49.2773Z" fill="white" stroke="#1D1E1E" stroke-width="1.5" stroke-miterlimit="10" stroke-linecap="round"/>
</g>
</g>
<defs>
<clipPath id="clip0_1_64">
<rect width="110" height="90" fill="white" transform="translate(0.330002)"/>
</clipPath>
<clipPath id="clip1_1_64">
<rect width="110" height="90" fill="white" transform="translate(0.330002)"/>
</clipPath>
</defs>
</svg>
