<svg width="122" height="91" viewBox="0 0 122 91" fill="none" xmlns="http://www.w3.org/2000/svg">
<g clip-path="url(#clip0_1_74)">
<g clip-path="url(#clip1_1_74)">
<mask id="mask0_1_74" style="mask-type:luminance" maskUnits="userSpaceOnUse" x="19" y="24" width="89" height="56">
<path d="M108 24H19V79.3551H108V24Z" fill="white"/>
</mask>
<g mask="url(#mask0_1_74)">
<path d="M26.4502 70.7056H29.0867C29.6169 70.7056 30.1254 70.9162 30.5004 71.2911C30.8753 71.666 31.0859 72.1745 31.0859 72.7048V76.2034C31.0859 76.9186 30.8018 77.6044 30.2961 78.1101C29.7905 78.6158 29.1046 78.8999 28.3895 78.8999H27.14C26.4252 78.8992 25.74 78.6148 25.2349 78.1092C24.7297 77.6036 24.446 76.9181 24.446 76.2034V72.7048C24.446 72.1745 24.6566 71.666 25.0316 71.2911C25.4065 70.9162 25.915 70.7056 26.4452 70.7056H26.4502Z" fill="white" stroke="#1D1E1E" stroke-width="0.899651" stroke-miterlimit="10"/>
<path d="M56.7927 70.7056H59.4292C59.9594 70.7056 60.4679 70.9162 60.8428 71.2911C61.2178 71.6661 61.4284 72.1746 61.4284 72.7048V76.2034C61.4284 76.9186 61.1443 77.6044 60.6386 78.1101C60.1329 78.6158 59.4471 78.8999 58.732 78.8999H57.4824C56.7673 78.8999 56.0814 78.6158 55.5758 78.1101C55.0701 77.6044 54.786 76.9186 54.786 76.2034V72.7048C54.786 72.4416 54.8379 72.181 54.9389 71.938C55.0398 71.6949 55.1877 71.4742 55.3742 71.2885C55.5606 71.1027 55.7819 70.9556 56.0253 70.8556C56.2688 70.7556 56.5295 70.7046 56.7927 70.7056Z" fill="white" stroke="#1D1E1E" stroke-width="0.899651" stroke-miterlimit="10"/>
<path d="M62.7439 60.7894C62.8328 60.6773 62.9107 60.5568 62.9763 60.4296C63.2019 59.9924 63.2981 59.5 63.2537 59.0101C63.2047 58.5711 63.0379 58.1534 62.7708 57.8015C62.5038 57.4495 62.1465 57.1763 61.7368 57.0109C61.368 56.8636 60.9688 56.8086 60.5739 56.8506C60.179 56.8927 59.8003 57.0305 59.4708 57.2521C59.1413 57.4738 58.8709 57.7726 58.6831 58.1225C58.4952 58.4724 58.3957 58.8629 58.3931 59.26C58.3934 59.3436 58.3984 59.427 58.4081 59.5099C58.4671 59.9846 58.4417 60.466 58.3331 60.9319L58.1582 61.6416C58.1408 61.7097 58.1419 61.7811 58.1613 61.8487C58.1808 61.9162 58.2179 61.9773 58.2688 62.0257C58.3197 62.074 58.3827 62.108 58.4511 62.1239C58.5195 62.1399 58.5909 62.1373 58.658 62.1164L59.7001 61.824C60.0692 61.7311 60.4492 61.689 60.8297 61.6991C61.1953 61.6956 61.5558 61.6124 61.886 61.4553C62.2162 61.2982 62.5081 61.071 62.7414 60.7894H62.7439Z" fill="white" stroke="#1D1E1E" stroke-width="0.899651" stroke-miterlimit="10" stroke-linecap="round"/>
<path d="M22.4412 60.7895C22.3523 60.6773 22.2745 60.5568 22.2088 60.4296C21.9825 59.9927 21.8854 59.5003 21.9289 59.0101C21.9874 58.4503 22.2374 57.9278 22.6368 57.5312C23.0362 57.1345 23.5603 56.8881 24.1206 56.8335C24.4585 56.8019 24.7994 56.8411 25.1213 56.9486C25.4433 57.0561 25.7393 57.2295 25.9905 57.4579C26.2416 57.6862 26.4424 57.9644 26.58 58.2747C26.7176 58.585 26.7889 58.9206 26.7895 59.26C26.7893 59.3436 26.7843 59.427 26.7746 59.5099C26.7156 59.9846 26.7409 60.4661 26.8495 60.9319L27.027 61.6416C27.0433 61.7084 27.0419 61.7782 27.023 61.8443C27.004 61.9103 26.9682 61.9703 26.919 62.0183C26.8698 62.0662 26.8089 62.1005 26.7423 62.1177C26.6758 62.1349 26.6059 62.1345 26.5396 62.1165L25.495 61.8241C25.1187 61.7288 24.731 61.6867 24.343 61.6991C23.958 61.6987 23.5786 61.6071 23.2359 61.4317C22.928 61.2772 22.6569 61.0581 22.4412 60.7895Z" fill="white" stroke="#1D1E1E" stroke-width="0.899651" stroke-miterlimit="10" stroke-linecap="round"/>
<path d="M59.1241 60.5845L56.2053 52.5552C55.7103 51.4883 54.9195 50.586 53.9267 49.9556C52.9339 49.3252 51.781 48.9932 50.6049 48.999H34.4312C33.3564 48.995 32.2992 49.2724 31.3649 49.8038C30.4306 50.3352 29.6517 51.102 29.1058 52.0279L25.4472 60.8369L59.1241 60.5845Z" fill="#FF7300" stroke="#1D1E1E" stroke-width="0.899651" stroke-miterlimit="10"/>
<path d="M60.6298 74.0467C48.6631 74.6915 36.6704 74.6915 24.7037 74.0467C23.2693 74.0467 22.1047 73.0796 22.1047 71.8876V65.805C22.1047 62.5987 25.231 59.9997 29.0845 59.9997H56.249C60.1025 59.9997 63.2287 62.5987 63.2287 65.805V71.8876C63.2287 73.0796 62.0767 74.0467 60.6298 74.0467Z" fill="white" stroke="#1D1E1E" stroke-width="0.899651" stroke-miterlimit="10"/>
<path d="M51.413 69.2411C45.7266 69.6459 40.0185 69.6459 34.3321 69.2411H51.413Z" fill="white"/>
<path d="M51.413 69.2411C45.7266 69.6459 40.0185 69.6459 34.3321 69.2411" stroke="#1D1E1E" stroke-width="0.899651" stroke-miterlimit="10" stroke-linecap="round"/>
<path d="M29.8228 64.6028H28.1085C27.2355 64.6028 26.5278 65.3105 26.5278 66.1835V66.6783C26.5278 67.5513 27.2355 68.259 28.1085 68.259H29.8228C30.6958 68.259 31.4035 67.5513 31.4035 66.6783V66.1835C31.4035 65.3105 30.6958 64.6028 29.8228 64.6028Z" fill="#FF7300" stroke="#1D1E1E" stroke-width="0.788175" stroke-miterlimit="10"/>
<path d="M57.5962 64.0857H55.6394C54.6429 64.0857 53.8351 64.8935 53.8351 65.89V66.4548C53.8351 67.4513 54.6429 68.2591 55.6394 68.2591H57.5962C58.5927 68.2591 59.4005 67.4513 59.4005 66.4548V65.89C59.4005 64.8935 58.5927 64.0857 57.5962 64.0857Z" fill="#FF7300" stroke="#1D1E1E" stroke-width="0.899651" stroke-miterlimit="10"/>
<path d="M86.1136 73.0727H49.6382V78.9088H86.1136V73.0727Z" fill="white"/>
<path d="M45.075 68.7631H48.3616C49.0226 68.7631 49.6565 69.0256 50.1239 69.493C50.5913 69.9604 50.8538 70.5943 50.8538 71.2553V75.6166C50.8538 76.5081 50.4997 77.3631 49.8693 77.9935C49.2389 78.6239 48.3839 78.978 47.4925 78.978H45.9348C45.0439 78.9772 44.1897 78.6227 43.56 77.9924C42.9303 77.3621 42.5766 76.5076 42.5766 75.6166V71.2553C42.5766 70.5943 42.8391 69.9604 43.3065 69.493C43.7739 69.0256 44.4078 68.7631 45.0688 68.7631H45.075Z" fill="white" stroke="#1D1E1E" stroke-width="1.1215" stroke-miterlimit="10"/>
<path d="M82.9009 68.7631H86.1875C86.8485 68.7631 87.4824 69.0256 87.9498 69.493C88.4172 69.9604 88.6798 70.5943 88.6798 71.2553V75.6167C88.6798 76.5081 88.3256 77.3631 87.6952 77.9935C87.0649 78.6239 86.2099 78.978 85.3184 78.978H83.7608C82.8693 78.978 82.0143 78.6239 81.3839 77.9935C80.7535 77.3631 80.3994 76.5081 80.3994 75.6167V71.2553C80.3994 70.9272 80.4642 70.6024 80.59 70.2994C80.7158 69.9964 80.9002 69.7213 81.1326 69.4897C81.3651 69.2582 81.6409 69.0748 81.9443 68.9501C82.2478 68.8254 82.5729 68.7618 82.9009 68.7631Z" fill="white" stroke="#1D1E1E" stroke-width="1.1215" stroke-miterlimit="10"/>
<path d="M90.3161 56.4018C90.4269 56.2619 90.524 56.1117 90.6059 55.9532C90.887 55.4082 91.007 54.7944 90.9516 54.1837C90.8906 53.6364 90.6825 53.1157 90.3496 52.677C90.0167 52.2382 89.5714 51.8977 89.0607 51.6915C88.6009 51.5079 88.1033 51.4393 87.611 51.4917C87.1187 51.5441 86.6467 51.7159 86.2359 51.9922C85.8251 52.2685 85.488 52.641 85.2539 53.0772C85.0198 53.5134 84.8957 54.0002 84.8925 54.4952C84.8928 54.5993 84.899 54.7033 84.9111 54.8068C84.9847 55.3985 84.9531 55.9986 84.8177 56.5794L84.5996 57.4641C84.5779 57.5489 84.5793 57.638 84.6035 57.7222C84.6278 57.8063 84.674 57.8825 84.7375 57.9428C84.801 58.0031 84.8794 58.0454 84.9647 58.0653C85.05 58.0852 85.139 58.082 85.2227 58.056L86.5217 57.6915C86.9818 57.5756 87.4556 57.5232 87.9298 57.5357C88.3856 57.5314 88.835 57.4277 89.2466 57.2318C89.6582 57.036 90.0222 56.7527 90.313 56.4018H90.3161Z" fill="white" stroke="#1D1E1E" stroke-width="1.1215" stroke-miterlimit="10" stroke-linecap="round"/>
<path d="M40.0771 56.4017C39.9662 56.2618 39.8692 56.1116 39.7873 55.9531C39.5052 55.4084 39.3842 54.7946 39.4384 54.1836C39.5113 53.4857 39.823 52.8344 40.3208 52.34C40.8187 51.8455 41.4721 51.5382 42.1705 51.4702C42.5918 51.4308 43.0167 51.4797 43.418 51.6137C43.8194 51.7477 44.1884 51.9639 44.5015 52.2486C44.8146 52.5332 45.0648 52.88 45.2364 53.2669C45.4079 53.6537 45.4969 54.072 45.4976 54.4951C45.4973 54.5992 45.4911 54.7032 45.4789 54.8067C45.4054 55.3984 45.437 55.9985 45.5724 56.5793L45.7936 57.464C45.8139 57.5472 45.8122 57.6343 45.7886 57.7166C45.765 57.799 45.7203 57.8737 45.659 57.9335C45.5976 57.9933 45.5217 58.036 45.4388 58.0575C45.3558 58.0789 45.2687 58.0784 45.1861 58.0559L43.8839 57.6914C43.4148 57.5727 42.9314 57.5202 42.4478 57.5356C41.9679 57.5351 41.4949 57.4209 41.0677 57.2023C40.6838 57.0097 40.346 56.7366 40.0771 56.4017Z" fill="white" stroke="#1D1E1E" stroke-width="1.1215" stroke-miterlimit="10" stroke-linecap="round"/>
<path d="M85.805 56.1463L82.1664 46.1369C81.5494 44.8071 80.5636 43.6823 79.3259 42.8964C78.0883 42.1106 76.6511 41.6967 75.1851 41.7039H55.0231C53.6832 41.6988 52.3653 42.0447 51.2006 42.7071C50.0359 43.3695 49.065 44.3254 48.3845 45.4796L43.8237 56.4609L85.805 56.1463Z" fill="#FF7300" stroke="#1D1E1E" stroke-width="1.1215" stroke-miterlimit="10"/>
<path d="M87.6851 72.9282C72.7675 73.732 57.8175 73.732 42.9 72.9282C41.1118 72.9282 39.6601 71.7226 39.6601 70.2366V62.6541C39.6601 58.6572 43.5573 55.4173 48.3611 55.4173H82.224C87.0277 55.4173 90.9249 58.6572 90.9249 62.6541V70.2366C90.9249 71.7226 89.4888 72.9282 87.6851 72.9282Z" fill="white" stroke="#1D1E1E" stroke-width="1.1215" stroke-miterlimit="10"/>
<path d="M76.1936 66.9376C69.105 67.4423 61.9894 67.4423 54.9008 66.9376H76.1936Z" fill="white"/>
<path d="M76.1936 66.9376C69.105 67.4423 61.9894 67.4423 54.9008 66.9376" stroke="#1D1E1E" stroke-width="1.1215" stroke-miterlimit="10" stroke-linecap="round"/>
<path d="M49.86 60.5107H47.4208C46.1786 60.5107 45.1715 61.5177 45.1715 62.7599V63.4639C45.1715 64.7062 46.1786 65.7132 47.4208 65.7132H49.86C51.1022 65.7132 52.1092 64.7062 52.1092 63.4639V62.7599C52.1092 61.5177 51.1022 60.5107 49.86 60.5107Z" fill="#FF7300" stroke="#1D1E1E" stroke-width="1.1215" stroke-miterlimit="10"/>
<path d="M83.8988 60.5107H81.4596C80.2174 60.5107 79.2103 61.5177 79.2103 62.7599V63.4639C79.2103 64.7062 80.2174 65.7132 81.4596 65.7132H83.8988C85.141 65.7132 86.148 64.7062 86.148 63.4639V62.7599C86.148 61.5177 85.141 60.5107 83.8988 60.5107Z" fill="#FF7300" stroke="#1D1E1E" stroke-width="1.1215" stroke-miterlimit="10"/>
<path d="M19.5616 78.7943H96.8264H107.44" stroke="#1D1E1E" stroke-width="1.1215" stroke-miterlimit="10" stroke-linecap="round"/>
<path d="M100.974 24.9252H96.6592C95.9452 24.9252 95.3664 25.504 95.3664 26.218C95.3664 26.9321 95.9452 27.5109 96.6592 27.5109H100.974C101.688 27.5109 102.267 26.9321 102.267 26.218C102.267 25.504 101.688 24.9252 100.974 24.9252Z" fill="white" stroke="#1D1E1E" stroke-width="1.1215" stroke-miterlimit="10" stroke-linecap="round"/>
<path d="M98.8154 78.3551V40.542" stroke="#1D1E1E" stroke-width="1.1215" stroke-miterlimit="10" stroke-linecap="round"/>
<path d="M102.366 26.81H95.2629C93.8366 26.81 92.6804 27.9662 92.6804 29.3925V48.6853C92.6804 50.1117 93.8366 51.2679 95.2629 51.2679H102.366C103.792 51.2679 104.948 50.1117 104.948 48.6853V29.3925C104.948 27.9662 103.792 26.81 102.366 26.81Z" fill="white" stroke="#1D1E1E" stroke-width="1.1215" stroke-miterlimit="10"/>
<path d="M98.8143 33.947C100.048 33.947 101.048 32.947 101.048 31.7134C101.048 30.4798 100.048 29.4797 98.8143 29.4797C97.5806 29.4797 96.5806 30.4798 96.5806 31.7134C96.5806 32.947 97.5806 33.947 98.8143 33.947Z" fill="#FF7300" stroke="#1D1E1E" stroke-width="0.996885" stroke-miterlimit="10"/>
<path d="M98.8143 41.2742C100.048 41.2742 101.048 40.2741 101.048 39.0405C101.048 37.8069 100.048 36.8069 98.8143 36.8069C97.5806 36.8069 96.5806 37.8069 96.5806 39.0405C96.5806 40.2741 97.5806 41.2742 98.8143 41.2742Z" fill="#FF7300" stroke="#1D1E1E" stroke-width="0.996885" stroke-miterlimit="10"/>
<path d="M98.8143 48.6012C100.048 48.6012 101.048 47.6011 101.048 46.3675C101.048 45.1339 100.048 44.1339 98.8143 44.1339C97.5806 44.1339 96.5806 45.1339 96.5806 46.3675C96.5806 47.6011 97.5806 48.6012 98.8143 48.6012Z" fill="#FF7300" stroke="#1D1E1E" stroke-width="0.996885" stroke-miterlimit="10"/>
</g>
</g>
</g>
<defs>
<clipPath id="clip0_1_74">
<rect width="122" height="91" fill="white"/>
</clipPath>
<clipPath id="clip1_1_74">
<rect width="122" height="91" fill="white"/>
</clipPath>
</defs>
</svg>
