<svg width="122" height="91" viewBox="0 0 122 91" fill="none" xmlns="http://www.w3.org/2000/svg">
<g clip-path="url(#clip0_1_114)">
<g clip-path="url(#clip1_1_114)">
<path d="M65.9843 15.7635C66.8348 15.9022 67.5436 16.3181 68.0397 16.9419C68.5358 17.5658 68.8902 18.3283 68.8902 19.0907V40.0245C68.9611 45.9165 67.1892 51.6698 63.929 56.6607C60.6687 61.6515 55.9201 65.6719 50.321 68.2366C48.1239 69.2071 45.6432 70.5934 43.4461 70.5934C41.249 70.5934 38.7684 69.2071 36.5713 68.2366C30.9721 65.6719 26.2235 61.6515 22.9633 56.6607C19.703 51.6698 17.9312 45.9165 18.002 40.0245V19.0907C18.002 18.3283 18.2855 17.5658 18.8525 16.9419C19.3487 16.3181 20.1283 15.9022 20.9079 15.7635C27.2158 14.7238 34.7994 12.6443 41.5325 8.55454C42.0995 8.20795 42.8082 8 43.4461 8C44.084 8 44.7927 8.20795 45.3597 8.55454C52.022 12.6443 59.6056 14.7238 65.9843 15.7635Z" fill="white" stroke="#1D1E1E" stroke-width="1.4" stroke-miterlimit="10"/>
<path d="M52.9322 40.3084C49.9038 40.2831 47.0136 39.0258 44.9774 36.8403L43.4589 35.2287L41.9318 36.8403C39.887 39.0258 37.0054 40.2831 33.977 40.3084C31.6648 40.2409 29.4647 39.2789 27.8772 37.6335C26.2897 35.9881 25.427 33.7942 25.4873 31.5243C25.427 29.2629 26.2897 27.0606 27.8772 25.4151C29.4647 23.7697 31.6648 22.8077 33.977 22.7402C37.0054 22.7655 39.8957 24.0228 41.9318 26.2083L43.4503 27.82L44.9774 26.2083C47.0222 24.0228 49.9038 22.7655 52.9322 22.7402C55.2444 22.8077 57.4445 23.7697 59.032 25.4151C60.6195 27.0606 61.4823 29.2545 61.4219 31.5243C61.4823 33.7857 60.6195 35.9881 59.032 37.6335C57.4445 39.2789 55.2444 40.2409 52.9322 40.3084ZM46.9445 31.5243L48.7391 33.4313C49.8003 34.6042 51.3274 35.2793 52.9236 35.2877C53.8812 35.2202 54.7613 34.7814 55.3911 34.0811C56.0209 33.3723 56.3401 32.4609 56.2797 31.5243C56.3401 30.5877 56.0209 29.6679 55.3911 28.9676C54.7613 28.2588 53.8726 27.8284 52.9236 27.7609C51.3274 27.7778 49.8089 28.4444 48.7391 29.6173L46.9359 31.5243H46.9445ZM33.9684 27.7609C33.0107 27.8284 32.1307 28.2672 31.5009 28.9676C30.8711 29.6764 30.5518 30.5877 30.6122 31.5243C30.5518 32.4609 30.8711 33.3807 31.5009 34.0811C32.1307 34.7899 33.0194 35.2202 33.9684 35.2877C35.5645 35.2708 37.083 34.6042 38.1529 33.4313L39.9561 31.5243L38.1529 29.6173C37.0917 28.4528 35.5732 27.7778 33.9684 27.7609Z" fill="#318FCC" stroke="#1D1E1E" stroke-width="1.4" stroke-miterlimit="10"/>
<path d="M43.4469 27.8187L39.9526 31.523" stroke="#1D1E1E" stroke-width="1.4" stroke-miterlimit="10"/>
<path d="M47.0587 31.3464L43.5645 35.0508" stroke="#1D1E1E" stroke-width="1.4" stroke-miterlimit="10"/>
<path d="M30.498 78.5762H100.308" stroke="#1D1E1E" stroke-width="1.4" stroke-miterlimit="10" stroke-linecap="round"/>
<path d="M44.6214 69.7631H47.5535C48.1451 69.7631 48.7105 70.0005 49.1247 70.416C49.5454 70.8314 49.7755 71.3985 49.7755 71.9854V75.8761C49.7755 76.674 49.4599 77.4323 48.8946 77.9928C48.3292 78.5534 47.5666 78.8699 46.7711 78.8699H45.3774C44.582 78.8699 43.8194 78.5534 43.2606 77.9928C42.7018 77.4323 42.3862 76.6674 42.3862 75.8761V71.9854C42.3862 71.6953 42.4454 71.4051 42.5572 71.1348C42.6689 70.8644 42.8333 70.6204 43.0436 70.416C43.254 70.2116 43.4972 70.0467 43.7668 69.9346C44.0363 69.8225 44.3256 69.7631 44.6214 69.7697V69.7631Z" fill="white" stroke="#1D1E1E" stroke-width="1.4" stroke-miterlimit="10"/>
<path d="M78.4073 69.7676H81.3459C81.9376 69.7676 82.503 70.005 82.9171 70.4205C83.3379 70.8359 83.568 71.403 83.568 71.9899V75.8806C83.568 76.6785 83.2524 77.4368 82.687 77.9973C82.1217 78.5578 81.3591 78.8744 80.5636 78.8744H79.1699C78.3745 78.8744 77.6119 78.5578 77.0531 77.9907C76.4943 77.4302 76.1787 76.6653 76.1787 75.874V71.9833C76.1787 71.3964 76.4154 70.8293 76.8295 70.4139C77.2503 69.9984 77.8157 69.761 78.4008 69.761L78.4073 69.7676Z" fill="white" stroke="#1D1E1E" stroke-width="1.4" stroke-miterlimit="10"/>
<path d="M85.0442 58.7399C85.1428 58.6146 85.2283 58.4827 85.3006 58.3442C85.5438 57.8563 85.649 57.3089 85.5964 56.7616C85.5438 56.2736 85.3532 55.812 85.0573 55.4164C84.7615 55.0273 84.3605 54.724 83.9069 54.5393C83.6636 54.4404 83.4138 54.3811 83.1574 54.3547C82.7827 54.3217 82.4014 54.3613 82.0398 54.48C81.6783 54.5987 81.3496 54.7899 81.0735 55.0471C80.7908 55.3043 80.5673 55.6076 80.4161 55.9571C80.2648 56.3 80.186 56.6759 80.186 57.0518C80.186 57.1441 80.186 57.2364 80.2057 57.3287C80.2714 57.8563 80.2451 58.3904 80.1202 58.9114L79.923 59.7027C79.9033 59.7752 79.9033 59.8609 79.923 59.9335C79.9427 60.006 79.9887 60.0785 80.0413 60.1313C80.1005 60.1841 80.1662 60.2236 80.2451 60.2434C80.324 60.2632 80.4029 60.2566 80.4752 60.2368L81.6388 59.9137C82.053 59.8082 82.4869 59.7554 82.9142 59.762C83.3218 59.762 83.7228 59.6697 84.091 59.4917C84.4591 59.3136 84.7812 59.063 85.0442 58.7465V58.7399Z" fill="white" stroke="#1D1E1E" stroke-width="1.4" stroke-miterlimit="10" stroke-linecap="round"/>
<path d="M40.1504 58.7417C40.0518 58.6165 39.9663 58.4846 39.894 58.3461C39.6442 57.8581 39.5324 57.3108 39.585 56.77C39.6376 56.2821 39.8282 55.8205 40.1241 55.4248C40.4199 55.0357 40.8209 54.7324 41.2745 54.5478C41.5178 54.4488 41.7676 54.3895 42.024 54.3631C42.3987 54.3301 42.78 54.3697 43.1416 54.4884C43.5031 54.6071 43.8318 54.7983 44.108 55.0555C44.3906 55.3127 44.6142 55.616 44.7654 55.9655C44.9166 56.3084 44.9955 56.6843 44.9955 57.0602C44.9955 57.1525 44.9955 57.2448 44.9757 57.3372C44.91 57.8647 44.9363 58.3988 45.0612 58.9198L45.2584 59.7111C45.2781 59.7836 45.2781 59.8694 45.2584 59.9419C45.2387 60.0144 45.1927 60.087 45.1401 60.1397C45.0809 60.1925 45.0152 60.2321 44.9363 60.2518C44.8574 60.2716 44.7785 60.265 44.7062 60.2452L43.5426 59.9221C43.1284 59.8166 42.7011 59.7639 42.2738 59.7705C41.8662 59.7705 41.4652 59.6781 41.097 59.5001C40.7289 59.322 40.4002 59.0715 40.1438 58.7549H40.1569L40.1504 58.7417Z" fill="white" stroke="#1D1E1E" stroke-width="1.4" stroke-miterlimit="10" stroke-linecap="round" stroke-linejoin="round"/>
<path d="M81.0117 58.5103L77.7575 49.5882C77.2053 48.4012 76.3244 47.3988 75.2199 46.6998C74.1155 46.0009 72.8335 45.6316 71.5187 45.6382H53.5057C52.3093 45.6382 51.1325 45.9415 50.0872 46.535C49.0485 47.1285 48.1807 47.9791 47.5694 49.0079L43.5 58.8004L81.0051 58.5169L81.0117 58.5103Z" fill="#318FCC" stroke="#1D1E1E" stroke-width="1.4" stroke-miterlimit="10"/>
<path d="M82.69 73.4773C69.3644 74.1961 56.0058 74.1961 42.6802 73.4773C41.0827 73.4773 39.7876 72.4024 39.7876 71.077V64.3178C39.7876 60.7503 43.2653 57.862 47.5582 57.862H77.812C82.1049 57.862 85.5826 60.7503 85.5826 64.3178V71.077C85.5826 72.4024 84.2875 73.4773 82.69 73.4773Z" fill="white" stroke="#1D1E1E" stroke-width="1.4" stroke-miterlimit="10"/>
<path d="M72.4228 68.1495C66.092 68.5979 59.7349 68.5979 53.3975 68.1495H72.4228Z" fill="white"/>
<path d="M72.4228 68.1495C66.092 68.5979 59.7349 68.5979 53.3975 68.1495" stroke="#1D1E1E" stroke-width="1.4" stroke-miterlimit="10" stroke-linecap="round"/>
<path d="M48.8969 62.4056H46.7143C45.6033 62.4056 44.7026 63.3024 44.7026 64.4103V65.0367C44.7026 66.1446 45.6033 67.0414 46.7143 67.0414H48.8969C50.0079 67.0414 50.9086 66.1446 50.9086 65.0367V64.4103C50.9086 63.3024 50.0079 62.4056 48.8969 62.4056Z" fill="#318FCC" stroke="#1D1E1E" stroke-width="1.4" stroke-miterlimit="10"/>
<path d="M79.3034 62.4056H77.1274C76.0164 62.4056 75.1157 63.3024 75.1157 64.4103V65.0367C75.1157 66.1446 76.0164 67.0414 77.1274 67.0414H79.3034C80.4144 67.0414 81.3151 66.1446 81.3151 65.0367V64.4103C81.3151 63.3024 80.4144 62.4056 79.3034 62.4056Z" fill="#318FCC" stroke="#1D1E1E" stroke-width="1.4" stroke-miterlimit="10"/>
</g>
</g>
<defs>
<clipPath id="clip0_1_114">
<rect width="122" height="91" fill="white"/>
</clipPath>
<clipPath id="clip1_1_114">
<rect width="122" height="91" fill="white"/>
</clipPath>
</defs>
</svg>
