<svg width="110" height="89" viewBox="0 0 110 89" fill="none" xmlns="http://www.w3.org/2000/svg">
<g clip-path="url(#clip0_1_138)">
<g clip-path="url(#clip1_1_138)">
<path d="M66.0502 76.3591V17.0308C66.0502 16.9414 66.0502 16.8521 66.0502 16.7627C66.222 14.6355 68.5623 13.3949 70.4936 14.2987L92.0991 24.4125C92.8908 24.7842 93.5604 25.3736 94.0295 26.1118C94.4987 26.8499 94.7481 27.7063 94.7487 28.581V76.3488" fill="white"/>
<path d="M66.0502 76.3591V17.0308C66.0502 16.9414 66.0502 16.8521 66.0502 16.7627C66.222 14.6355 68.5623 13.3949 70.4936 14.2987L92.0991 24.4125C92.8908 24.7842 93.5604 25.3736 94.0295 26.1118C94.4987 26.8499 94.7481 27.7063 94.7487 28.581V76.3488" stroke="#1D1E1E" stroke-width="1.4" stroke-miterlimit="10"/>
<path d="M69.0199 24.2719H31.7597C30.5205 24.2719 29.5159 25.5475 29.5159 27.1211V28.6831C29.5159 30.2567 30.5205 31.5324 31.7597 31.5324H69.0199C70.2592 31.5324 71.2638 30.2567 71.2638 28.6831V27.1211C71.2638 25.5475 70.2592 24.2719 69.0199 24.2719Z" fill="#FF7300" stroke="#1D1E1E" stroke-width="1.4" stroke-miterlimit="10" stroke-linecap="round"/>
<path d="M73.079 38.793H87.4815" stroke="#1D1E1E" stroke-width="1.4" stroke-miterlimit="10" stroke-linecap="round"/>
<path d="M73.079 51.4069H87.4815" stroke="#1D1E1E" stroke-width="1.4" stroke-miterlimit="10" stroke-linecap="round"/>
<path d="M24.5884 29.0139H76.4457C77.4948 29.0139 78.5009 29.4307 79.2427 30.1724C79.9845 30.9142 80.4012 31.9203 80.4012 32.9694V76.366H20.6261V32.9625C20.627 32.4431 20.7302 31.9289 20.9298 31.4493C21.1294 30.9698 21.4215 30.5342 21.7895 30.1676C22.1574 29.8009 22.594 29.5103 23.0742 29.3124C23.5545 29.1144 24.069 29.013 24.5884 29.0139Z" fill="white" stroke="#1D1E1E" stroke-width="1.4" stroke-miterlimit="10"/>
<path d="M45.7133 37.8873C44.7324 37.8625 43.7606 38.0787 42.8846 38.5166C42.0087 38.9546 41.256 39.6005 40.6937 40.3968C39.8898 41.582 39.4732 42.9832 39.5004 44.4106C39.5276 45.838 39.9973 47.2227 40.8457 48.377C43.8156 52.786 49.6608 56.6378 49.9073 56.8005C50.0504 56.8942 50.2183 56.9442 50.3899 56.9442C50.5616 56.9442 50.7294 56.8942 50.8726 56.8005C51.119 56.6378 56.9643 52.786 59.9341 48.377C60.7826 47.2227 61.2522 45.838 61.2794 44.4106C61.3066 42.9832 60.89 41.582 60.0861 40.3968C59.5196 39.6039 58.7655 38.9605 57.8897 38.523C57.0139 38.0855 56.0432 37.8672 55.0624 37.8873C54.1274 37.917 53.2136 38.1709 52.3994 38.6271C51.5853 39.0833 50.895 39.7283 50.3879 40.5067C49.881 39.728 49.1908 39.0829 48.3765 38.6266C47.5623 38.1704 46.6484 37.9167 45.7133 37.8873Z" fill="#FF7300" stroke="#1D1E1E" stroke-width="1.4" stroke-miterlimit="10" stroke-linecap="round"/>
<path d="M80.4078 64.5409C61.0876 65.1984 41.1637 65.1984 20.6361 64.5409H80.4078Z" fill="white"/>
<path d="M80.4078 64.5409C61.0876 65.1984 41.1637 65.1984 20.6361 64.5409" stroke="#1D1E1E" stroke-width="1.4" stroke-miterlimit="10"/>
<path d="M41.2454 64.9291V75.926" stroke="#1D1E1E" stroke-width="1.4" stroke-miterlimit="10"/>
<path d="M59.8025 64.9291V75.926" stroke="#1D1E1E" stroke-width="1.4" stroke-miterlimit="10"/>
<path d="M2 76.3591H94.2641H108.763" stroke="#1D1E1E" stroke-width="1.4" stroke-miterlimit="10" stroke-linecap="round"/>
</g>
</g>
<defs>
<clipPath id="clip0_1_138">
<rect width="110" height="89" fill="white"/>
</clipPath>
<clipPath id="clip1_1_138">
<rect width="110" height="89" fill="white"/>
</clipPath>
</defs>
</svg>
