<svg width="122" height="91" viewBox="0 0 122 91" fill="none" xmlns="http://www.w3.org/2000/svg">
<g clip-path="url(#clip0_1_158)">
<g clip-path="url(#clip1_1_158)">
<path d="M73.5569 30.7812H47.8929C44.8001 30.7812 42.293 33.2884 42.293 36.3812V70.8151C42.293 73.9079 44.8001 76.415 47.8929 76.415H73.5569C76.6496 76.415 79.1568 73.9079 79.1568 70.8151V36.3812C79.1568 33.2884 76.6496 30.7812 73.5569 30.7812Z" fill="#318FCC" stroke="#1D1E1E" stroke-width="1.4" stroke-linecap="round" stroke-linejoin="round"/>
<path d="M51.4453 36.3477V70.3173" stroke="#1D1E1E" stroke-width="1.4" stroke-linecap="round" stroke-linejoin="round"/>
<path d="M60.7266 36.3477V70.3173" stroke="#1D1E1E" stroke-width="1.4" stroke-linecap="round" stroke-linejoin="round"/>
<path d="M70.0078 36.3477V70.3173" stroke="#1D1E1E" stroke-width="1.4" stroke-linecap="round" stroke-linejoin="round"/>
<path d="M71.233 81.7082C72.5461 81.7082 73.6105 80.6437 73.6105 79.3306C73.6105 78.0176 72.5461 76.9531 71.233 76.9531C69.9199 76.9531 68.8555 78.0176 68.8555 79.3306C68.8555 80.6437 69.9199 81.7082 71.233 81.7082Z" fill="white" stroke="#1D1E1E" stroke-width="1.4" stroke-linecap="round" stroke-linejoin="round"/>
<path d="M50.2135 81.7082C51.5265 81.7082 52.591 80.6437 52.591 79.3306C52.591 78.0176 51.5265 76.9531 50.2135 76.9531C48.9004 76.9531 47.8359 78.0176 47.8359 79.3306C47.8359 80.6437 48.9004 81.7082 50.2135 81.7082Z" fill="white" stroke="#1D1E1E" stroke-width="1.4" stroke-linecap="round" stroke-linejoin="round"/>
<path d="M67.3105 10.293H51.8339C50.0988 10.293 48.6953 11.6999 48.6953 13.4316V19.2968C48.6953 19.6564 48.9851 19.9462 49.3447 19.9462H52.979C53.3386 19.9462 53.6284 19.6564 53.6284 19.2968V15.9069C53.6284 15.2645 54.1486 14.7478 54.7875 14.7478H66.7764C67.4187 14.7478 67.9354 15.268 67.9354 15.9069V19.2968C67.9354 19.6564 68.2252 19.9462 68.5848 19.9462H72.2297C72.5893 19.9462 72.879 19.6564 72.879 19.2968V13.4316C72.879 11.6964 71.4721 10.293 69.7404 10.293H67.3105Z" fill="white" stroke="#1D1E1E" stroke-width="1.4" stroke-linecap="round" stroke-linejoin="round"/>
<path d="M69.9492 20.2461V30.6849" stroke="#1D1E1E" stroke-width="1.4" stroke-linecap="round" stroke-linejoin="round"/>
<path d="M51.3867 20.2461V30.6849" stroke="#1D1E1E" stroke-width="1.4" stroke-linecap="round" stroke-linejoin="round"/>
<path d="M91.489 41.8121C91.9316 41.8865 92.2998 42.1059 92.5564 42.4407C92.8131 42.7717 92.999 43.1771 92.999 43.5825V54.7183C93.0362 57.8538 92.1138 60.9111 90.4178 63.5667C88.7218 66.2224 86.2521 68.361 83.3398 69.7223C82.198 70.2393 80.9073 70.9757 79.7618 70.9757C78.6162 70.9757 77.3293 70.2393 76.1837 69.7223C73.2715 68.3573 70.8018 66.2187 69.1058 63.5667C67.4097 60.9111 66.4873 57.8538 66.5245 54.7183V43.5825C66.5245 43.1771 66.6733 42.7717 66.9671 42.4407C67.2238 42.1096 67.6292 41.8865 68.0346 41.8121C71.3151 41.2579 75.2613 40.1533 78.765 37.9774C79.0588 37.7915 79.427 37.6836 79.7618 37.6836C80.0965 37.6836 80.461 37.7952 80.7586 37.9774C84.225 40.1533 88.1676 41.2579 91.489 41.8121Z" fill="white" stroke="#1D1E1E" stroke-width="1.4" stroke-linecap="round" stroke-linejoin="round"/>
<path d="M87.3039 46.2918C87.5903 46.3476 87.8209 46.4926 87.992 46.6935C88.1631 46.8943 88.2784 47.1807 88.2784 47.4374V54.6046C88.3081 56.6093 87.7056 58.5881 86.6158 60.3101C85.526 62.0322 83.949 63.4046 82.0596 64.2675C81.3157 64.6097 80.4825 65.0709 79.7647 65.0709C79.0469 65.0709 78.1877 64.5837 77.4699 64.2675C75.6064 63.3786 73.9997 62.0024 72.9136 60.3101C71.8238 58.6178 71.2213 56.6428 71.2511 54.6046V47.4374C71.2511 47.1807 71.3366 46.9204 71.5374 46.6935C71.7085 46.4926 71.9689 46.3513 72.2255 46.2918C74.3456 45.9496 76.8673 45.2318 79.1324 43.8258C79.3333 43.7105 79.5639 43.625 79.7647 43.625C79.9656 43.625 80.2222 43.6808 80.397 43.8258C82.6323 45.202 85.1838 45.9199 87.3039 46.2918Z" fill="white" stroke="#1D1E1E" stroke-width="1.4" stroke-linecap="round" stroke-linejoin="round"/>
</g>
</g>
<defs>
<clipPath id="clip0_1_158">
<rect width="122" height="91" fill="white"/>
</clipPath>
<clipPath id="clip1_1_158">
<rect width="122" height="91" fill="white"/>
</clipPath>
</defs>
</svg>
