<svg width="122" height="91" viewBox="0 0 122 91" fill="none" xmlns="http://www.w3.org/2000/svg">
<g clip-path="url(#clip0_1_176)">
<g clip-path="url(#clip1_1_176)">
<path d="M46.9217 19.1227H43.2356C42.2444 19.1227 41.4409 19.9268 41.4409 20.9189V30.7769C41.4409 31.769 42.2444 32.5732 43.2356 32.5732H46.9217C47.9129 32.5732 48.7164 31.769 48.7164 30.7769V20.9189C48.7164 19.9268 47.9129 19.1227 46.9217 19.1227Z" fill="white" stroke="#1D1E1E" stroke-width="1.4" stroke-miterlimit="10"/>
<path d="M41.8608 76.4624C43.0883 75.2948 44.0102 73.8431 44.5456 72.2351C45.081 70.6271 45.2133 68.9121 44.931 67.2409C44.6487 65.5697 43.9603 63.9935 42.9265 62.6511C41.8927 61.3087 40.5451 60.2411 39.0023 59.5423C37.4595 58.8435 35.7688 58.5349 34.0788 58.6436C32.3889 58.7523 30.7515 59.275 29.3108 60.1658C27.8701 61.0566 26.6702 62.288 25.8166 63.7519C24.963 65.2158 24.482 66.8671 24.4157 68.5608C23.9585 68.4543 23.4907 68.3991 23.0213 68.3963C22.0484 68.3944 21.0889 68.623 20.2212 69.0634C19.3535 69.5039 18.6023 70.1436 18.0291 70.9304C17.4559 71.7172 17.0769 72.6286 16.9232 73.5901C16.7694 74.5516 16.8452 75.5359 17.1445 76.4624H41.8608Z" fill="white" stroke="#1D1E1E" stroke-width="1.4" stroke-linecap="round" stroke-linejoin="round"/>
<path d="M10 76.5635H98.6871H112.109" stroke="#1D1E1E" stroke-width="1.4" stroke-miterlimit="10" stroke-linecap="round"/>
<path d="M29.8842 76.5636H91.9804V43.0765C91.9574 41.8593 91.6464 40.6648 91.073 39.591C90.4996 38.5173 89.6801 37.5949 88.6817 36.8994L62.2214 17.4615C61.7954 17.1612 61.287 17 60.7659 17C60.2448 17 59.7364 17.1612 59.3104 17.4615L32.9174 36.7097C31.9026 37.4098 31.0707 38.3435 30.4916 39.4324C29.9124 40.5213 29.603 41.7334 29.5894 42.9669L29.8842 76.5636Z" fill="white" stroke="#1D1E1E" stroke-width="1.4" stroke-miterlimit="10"/>
<path d="M64.0154 76.5635V55.6752C64.0056 54.4536 64.2407 53.2425 64.7067 52.1134C65.1727 50.9843 65.8601 49.9602 66.7284 49.1017C68.149 47.6894 70.0701 46.8968 72.0723 46.8968C74.0746 46.8968 75.9956 47.6894 77.4162 49.1017C78.2858 49.9595 78.9745 50.9833 79.4413 52.1125C79.9081 53.2417 80.1434 54.4532 80.1335 55.6752V76.5635H64.0154Z" fill="#FF7300" stroke="#1D1E1E" stroke-width="1.4" stroke-miterlimit="10"/>
<path d="M38.3398 64.9217H56.7917" stroke="#1D1E1E" stroke-width="1.4" stroke-miterlimit="10" stroke-linecap="round"/>
<path d="M47.5022 47.6596C43.6475 47.6596 40.5259 50.0925 40.5259 53.0988V64.9049H54.4828V53.0988C54.4828 50.0925 51.3569 47.6596 47.5022 47.6596Z" fill="#FF7300" stroke="#1D1E1E" stroke-width="1.4" stroke-miterlimit="10" stroke-linecap="round"/>
</g>
</g>
<defs>
<clipPath id="clip0_1_176">
<rect width="122" height="91" fill="white"/>
</clipPath>
<clipPath id="clip1_1_176">
<rect width="122" height="91" fill="white"/>
</clipPath>
</defs>
</svg>
